<svg xmlns="http://www.w3.org/2000/svg" width="1600" height="520" viewBox="0 0 1600 520" fill="none">
  <defs>
    <linearGradient id="bg" x1="0" y1="0" x2="1600" y2="520" gradientUnits="userSpaceOnUse">
      <stop stop-color="#17191f"/>
      <stop offset="1" stop-color="#14161b"/>
    </linearGradient>
    <linearGradient id="row" x1="0" y1="0" x2="1" y2="0">
      <stop stop-color="#1D2027" stop-opacity="0.45"/>
      <stop offset="1" stop-color="#1D2027" stop-opacity="0.08"/>
    </linearGradient>
  </defs>

  <rect width="1600" height="520" rx="24" fill="url(#bg)"/>
  <rect x="1" y="1" width="1598" height="518" rx="23" stroke="#2A2E37" stroke-opacity="0.45"/>

  <text x="40" y="56" fill="#E5E7EB" font-family="Inter, Segoe UI, Arial" font-size="22" font-weight="700">Top Request Paths</text>
  <text x="1460" y="56" fill="#9AA5B5" font-family="Geist Mono, Consolas, monospace" font-size="14" letter-spacing="6">LIVE CAPTURE</text>

  <line x1="30" y1="84" x2="1570" y2="84" stroke="#2A2E37" stroke-opacity="0.45"/>

  <text x="30" y="130" fill="#8EA1C6" font-family="Geist Mono, Consolas, monospace" font-size="14" letter-spacing="4">PATH</text>
  <text x="980" y="130" fill="#8EA1C6" font-family="Geist Mono, Consolas, monospace" font-size="14" letter-spacing="4">REQUESTS</text>
  <text x="1512" y="130" fill="#8EA1C6" font-family="Geist Mono, Consolas, monospace" font-size="14" letter-spacing="4">SHARE</text>

  <g font-family="Inter, Segoe UI, Arial" font-size="15" fill="#F3F4F6">
    <rect x="30" y="154" width="1540" height="46" fill="url(#row)"/>
    <text x="30" y="183">/robots.txt</text>
    <text x="1045" y="183" font-weight="600">22</text>
    <rect x="1360" y="174" width="140" height="8" rx="4" fill="#3A3E45"/>
    <rect x="1360" y="174" width="26" height="8" rx="4" fill="#4CA6FF"/>
    <text x="1538" y="183" fill="#9FB1CD">8.3%</text>

    <text x="30" y="236">/static/fonts/fontawesome/webfonts/fa-brands-400.woff2</text>
    <text x="1045" y="236" font-weight="600">19</text>
    <rect x="1360" y="227" width="140" height="8" rx="4" fill="#3A3E45"/>
    <rect x="1360" y="227" width="22" height="8" rx="4" fill="#4CA6FF"/>
    <text x="1538" y="236" fill="#9FB1CD">7.2%</text>

    <text x="30" y="289">/static/fonts/fontawesome/webfonts/fa-brands-400.woff</text>
    <text x="1045" y="289" font-weight="600">16</text>
    <rect x="1360" y="280" width="140" height="8" rx="4" fill="#3A3E45"/>
    <rect x="1360" y="280" width="18" height="8" rx="4" fill="#4CA6FF"/>
    <text x="1538" y="289" fill="#9FB1CD">6.0%</text>

    <text x="30" y="342">/</text>
    <text x="1045" y="342" font-weight="600">14</text>
    <rect x="1360" y="333" width="140" height="8" rx="4" fill="#3A3E45"/>
    <rect x="1360" y="333" width="16" height="8" rx="4" fill="#4CA6FF"/>
    <text x="1538" y="342" fill="#9FB1CD">5.3%</text>

    <text x="30" y="395">/static/fonts/fontawesome/css/all.min.css</text>
    <text x="1045" y="395" font-weight="600">12</text>
    <rect x="1360" y="386" width="140" height="8" rx="4" fill="#3A3E45"/>
    <rect x="1360" y="386" width="13" height="8" rx="4" fill="#4CA6FF"/>
    <text x="1538" y="395" fill="#9FB1CD">4.5%</text>

    <text x="30" y="448">/static/css/ui.css</text>
    <text x="1045" y="448" font-weight="600">11</text>
    <rect x="1360" y="439" width="140" height="8" rx="4" fill="#3A3E45"/>
    <rect x="1360" y="439" width="12" height="8" rx="4" fill="#4CA6FF"/>
    <text x="1538" y="448" fill="#9FB1CD">4.2%</text>
  </g>
</svg>
